<svg xmlns="http://www.w3.org/2000/svg" xmlns:xlink="http://www.w3.org/1999/xlink" width="500" zoomAndPan="magnify" viewBox="0 0 375 374.999991" height="500" preserveAspectRatio="xMidYMid meet" version="1.0"><defs><g/><clipPath id="ae24bf11a7"><path d="M 155 98.839844 L 176 98.839844 L 176 187 L 155 187 Z M 155 98.839844 " clip-rule="nonzero"/></clipPath><clipPath id="9363956679"><path d="M 126.480469 164 L 248.730469 164 L 248.730469 203.839844 L 126.480469 203.839844 Z M 126.480469 164 " clip-rule="nonzero"/></clipPath></defs><path fill="#ffd700" d="M 219.300781 108.714844 L 203.882812 108.714844 L 203.882812 169.289062 C 205.433594 168.933594 206.976562 168.59375 208.507812 168.273438 L 208.507812 113.371094 L 211.589844 113.371094 L 211.589844 167.648438 C 213.144531 167.34375 214.6875 167.058594 216.214844 166.785156 L 216.214844 113.371094 L 219.300781 113.371094 L 219.300781 166.261719 C 220.855469 166.007812 222.398438 165.769531 223.921875 165.546875 L 223.921875 108.714844 L 219.300781 108.714844 " fill-opacity="1" fill-rule="nonzero"/><path fill="#ffd700" d="M 191.550781 116.472656 L 179.21875 116.472656 L 179.21875 176.367188 C 180.765625 175.832031 182.308594 175.316406 183.84375 174.820312 L 183.84375 121.132812 L 186.925781 121.132812 L 186.925781 173.84375 C 188.476562 173.367188 190.015625 172.90625 191.550781 172.46875 L 191.550781 121.132812 L 195.019531 121.132812 L 195.019531 171.503906 C 196.570312 171.085938 198.109375 170.683594 199.644531 170.300781 L 199.644531 116.472656 L 191.550781 116.472656 " fill-opacity="1" fill-rule="nonzero"/><g clip-path="url(#ae24bf11a7)"><path fill="#ffd700" d="M 167.65625 98.839844 L 155.324219 98.839844 L 155.324219 186.1875 C 156.867188 185.449219 158.410156 184.734375 159.949219 184.039062 L 159.949219 103.496094 L 163.03125 103.496094 L 163.03125 182.675781 C 164.578125 182.003906 166.117188 181.355469 167.65625 180.726562 L 167.65625 103.496094 L 170.738281 103.496094 L 170.738281 179.496094 C 172.285156 178.890625 173.828125 178.308594 175.363281 177.746094 L 175.363281 98.839844 L 167.65625 98.839844 " fill-opacity="1" fill-rule="nonzero"/></g><g clip-path="url(#9363956679)"><path fill="#ffd700" d="M 223.925781 166.675781 C 222.398438 166.898438 220.855469 167.132812 219.296875 167.390625 C 218.277344 167.554688 217.25 167.730469 216.214844 167.914062 C 214.6875 168.183594 213.144531 168.472656 211.589844 168.777344 C 210.566406 168.976562 209.539062 169.183594 208.507812 169.402344 C 206.976562 169.722656 205.433594 170.058594 203.882812 170.417969 C 202.476562 170.742188 201.066406 171.078125 199.644531 171.429688 C 198.109375 171.8125 196.570312 172.210938 195.019531 172.628906 C 193.867188 172.941406 192.710938 173.261719 191.550781 173.59375 C 190.015625 174.035156 188.472656 174.492188 186.925781 174.972656 C 185.902344 175.289062 184.875 175.613281 183.84375 175.945312 C 182.308594 176.441406 180.765625 176.960938 179.21875 177.496094 C 177.9375 177.941406 176.652344 178.398438 175.363281 178.871094 C 173.828125 179.4375 172.285156 180.019531 170.738281 180.625 C 169.714844 181.023438 168.6875 181.433594 167.65625 181.855469 C 166.117188 182.480469 164.578125 183.132812 163.03125 183.800781 C 162.003906 184.246094 160.976562 184.703125 159.949219 185.167969 C 158.410156 185.863281 156.867188 186.578125 155.324219 187.316406 C 152.472656 188.679688 149.617188 190.121094 146.753906 191.640625 C 139.472656 195.511719 132.738281 199.601562 126.523438 203.777344 L 161.351562 203.777344 C 161.351562 203.777344 168.203125 199.140625 179.21875 192.914062 C 180.6875 192.082031 182.230469 191.222656 183.84375 190.34375 C 184.84375 189.796875 185.871094 189.242188 186.925781 188.679688 C 188.421875 187.882812 189.960938 187.070312 191.550781 186.253906 C 192.683594 185.671875 193.839844 185.082031 195.019531 184.492188 C 196.527344 183.738281 198.070312 182.980469 199.644531 182.222656 C 201.03125 181.554688 202.445312 180.886719 203.882812 180.21875 C 205.402344 179.515625 206.941406 178.816406 208.507812 178.121094 C 209.527344 177.667969 210.554688 177.21875 211.589844 176.773438 C 213.113281 176.117188 214.65625 175.46875 216.214844 174.832031 C 217.234375 174.414062 218.265625 174 219.296875 173.589844 C 220.828125 172.988281 222.367188 172.394531 223.925781 171.816406 C 231.890625 168.847656 240.167969 166.234375 248.476562 164.300781 C 240.890625 164.679688 232.652344 165.410156 223.925781 166.675781 " fill-opacity="1" fill-rule="nonzero"/></g><g fill="#ffffff" fill-opacity="1"><g transform="translate(75.977933, 237.955472)"><g><path d="M 14.59375 -8.765625 C 15.550781 -8.421875 16.300781 -7.894531 16.84375 -7.1875 C 17.382812 -6.476562 17.65625 -5.617188 17.65625 -4.609375 C 17.65625 -3.140625 17.0625 -2.003906 15.875 -1.203125 C 14.695312 -0.398438 12.988281 0 10.75 0 L 1.6875 0 L 1.6875 -16.796875 L 10.265625 -16.796875 C 12.410156 -16.796875 14.039062 -16.398438 15.15625 -15.609375 C 16.28125 -14.816406 16.84375 -13.75 16.84375 -12.40625 C 16.84375 -11.601562 16.644531 -10.882812 16.25 -10.25 C 15.863281 -9.625 15.3125 -9.128906 14.59375 -8.765625 Z M 6.390625 -13.375 L 6.390625 -10.125 L 9.640625 -10.125 C 11.242188 -10.125 12.046875 -10.671875 12.046875 -11.765625 C 12.046875 -12.835938 11.242188 -13.375 9.640625 -13.375 Z M 10.375 -3.4375 C 12.03125 -3.4375 12.859375 -4.003906 12.859375 -5.140625 C 12.859375 -6.273438 12.03125 -6.84375 10.375 -6.84375 L 6.390625 -6.84375 L 6.390625 -3.4375 Z M 10.375 -3.4375 "/></g></g></g><g fill="#ffffff" fill-opacity="1"><g transform="translate(95.153967, 237.955472)"><g><path d="M 15.171875 -3.671875 L 15.171875 0 L 1.6875 0 L 1.6875 -16.796875 L 14.859375 -16.796875 L 14.859375 -13.125 L 6.390625 -13.125 L 6.390625 -10.296875 L 13.84375 -10.296875 L 13.84375 -6.75 L 6.390625 -6.75 L 6.390625 -3.671875 Z M 15.171875 -3.671875 "/></g></g></g><g fill="#ffffff" fill-opacity="1"><g transform="translate(112.001998, 237.955472)"><g><path d="M 1.6875 -16.796875 L 6.4375 -16.796875 L 6.4375 -3.765625 L 14.453125 -3.765625 L 14.453125 0 L 1.6875 0 Z M 1.6875 -16.796875 "/></g></g></g><g fill="#ffffff" fill-opacity="1"><g transform="translate(127.362022, 237.955472)"><g/></g></g><g fill="#ffffff" fill-opacity="1"><g transform="translate(135.06603, 237.955472)"><g><path d="M 10.0625 0.34375 C 8.300781 0.34375 6.71875 -0.0234375 5.3125 -0.765625 C 3.914062 -1.515625 2.816406 -2.550781 2.015625 -3.875 C 1.210938 -5.207031 0.8125 -6.71875 0.8125 -8.40625 C 0.8125 -10.082031 1.210938 -11.582031 2.015625 -12.90625 C 2.816406 -14.238281 3.914062 -15.273438 5.3125 -16.015625 C 6.71875 -16.765625 8.300781 -17.140625 10.0625 -17.140625 C 11.59375 -17.140625 12.972656 -16.863281 14.203125 -16.3125 C 15.441406 -15.769531 16.46875 -14.988281 17.28125 -13.96875 L 14.25 -11.234375 C 13.164062 -12.546875 11.847656 -13.203125 10.296875 -13.203125 C 9.378906 -13.203125 8.566406 -13 7.859375 -12.59375 C 7.148438 -12.195312 6.597656 -11.632812 6.203125 -10.90625 C 5.804688 -10.175781 5.609375 -9.34375 5.609375 -8.40625 C 5.609375 -7.457031 5.804688 -6.617188 6.203125 -5.890625 C 6.597656 -5.160156 7.148438 -4.59375 7.859375 -4.1875 C 8.566406 -3.789062 9.378906 -3.59375 10.296875 -3.59375 C 11.847656 -3.59375 13.164062 -4.25 14.25 -5.5625 L 17.28125 -2.828125 C 16.46875 -1.804688 15.441406 -1.019531 14.203125 -0.46875 C 12.972656 0.0703125 11.59375 0.34375 10.0625 0.34375 Z M 10.0625 0.34375 "/></g></g></g><g fill="#ffffff" fill-opacity="1"><g transform="translate(153.49806, 237.955472)"><g><path d="M 10.15625 0.34375 C 8.375 0.34375 6.773438 -0.03125 5.359375 -0.78125 C 3.941406 -1.539062 2.828125 -2.582031 2.015625 -3.90625 C 1.210938 -5.238281 0.8125 -6.738281 0.8125 -8.40625 C 0.8125 -10.0625 1.210938 -11.550781 2.015625 -12.875 C 2.828125 -14.207031 3.941406 -15.25 5.359375 -16 C 6.773438 -16.757812 8.375 -17.140625 10.15625 -17.140625 C 11.925781 -17.140625 13.519531 -16.757812 14.9375 -16 C 16.351562 -15.25 17.460938 -14.207031 18.265625 -12.875 C 19.078125 -11.550781 19.484375 -10.0625 19.484375 -8.40625 C 19.484375 -6.738281 19.078125 -5.238281 18.265625 -3.90625 C 17.460938 -2.582031 16.351562 -1.539062 14.9375 -0.78125 C 13.519531 -0.03125 11.925781 0.34375 10.15625 0.34375 Z M 10.15625 -3.59375 C 11 -3.59375 11.765625 -3.789062 12.453125 -4.1875 C 13.140625 -4.59375 13.679688 -5.160156 14.078125 -5.890625 C 14.484375 -6.617188 14.6875 -7.457031 14.6875 -8.40625 C 14.6875 -9.34375 14.484375 -10.175781 14.078125 -10.90625 C 13.679688 -11.632812 13.140625 -12.195312 12.453125 -12.59375 C 11.765625 -13 11 -13.203125 10.15625 -13.203125 C 9.300781 -13.203125 8.53125 -13 7.84375 -12.59375 C 7.15625 -12.195312 6.609375 -11.632812 6.203125 -10.90625 C 5.804688 -10.175781 5.609375 -9.34375 5.609375 -8.40625 C 5.609375 -7.457031 5.804688 -6.617188 6.203125 -5.890625 C 6.609375 -5.160156 7.15625 -4.59375 7.84375 -4.1875 C 8.53125 -3.789062 9.300781 -3.59375 10.15625 -3.59375 Z M 10.15625 -3.59375 "/></g></g></g><g fill="#ffffff" fill-opacity="1"><g transform="translate(174.522097, 237.955472)"><g><path d="M 17.65625 -16.796875 L 17.65625 0 L 13.75 0 L 6.34375 -8.953125 L 6.34375 0 L 1.6875 0 L 1.6875 -16.796875 L 5.59375 -16.796875 L 13.015625 -7.84375 L 13.015625 -16.796875 Z M 17.65625 -16.796875 "/></g></g></g><g fill="#ffffff" fill-opacity="1"><g transform="translate(194.586141, 237.955472)"><g><path d="M 7.578125 0.34375 C 6.222656 0.34375 4.90625 0.175781 3.625 -0.15625 C 2.34375 -0.5 1.300781 -0.953125 0.5 -1.515625 L 2.0625 -5.015625 C 2.8125 -4.515625 3.679688 -4.113281 4.671875 -3.8125 C 5.671875 -3.507812 6.648438 -3.359375 7.609375 -3.359375 C 9.429688 -3.359375 10.34375 -3.816406 10.34375 -4.734375 C 10.34375 -5.210938 10.082031 -5.566406 9.5625 -5.796875 C 9.039062 -6.023438 8.207031 -6.269531 7.0625 -6.53125 C 5.789062 -6.800781 4.726562 -7.09375 3.875 -7.40625 C 3.03125 -7.71875 2.304688 -8.21875 1.703125 -8.90625 C 1.097656 -9.59375 0.796875 -10.519531 0.796875 -11.6875 C 0.796875 -12.707031 1.070312 -13.628906 1.625 -14.453125 C 2.1875 -15.285156 3.023438 -15.941406 4.140625 -16.421875 C 5.253906 -16.898438 6.617188 -17.140625 8.234375 -17.140625 C 9.335938 -17.140625 10.425781 -17.015625 11.5 -16.765625 C 12.570312 -16.515625 13.515625 -16.148438 14.328125 -15.671875 L 12.859375 -12.140625 C 11.265625 -13.003906 9.710938 -13.4375 8.203125 -13.4375 C 7.265625 -13.4375 6.578125 -13.296875 6.140625 -13.015625 C 5.710938 -12.734375 5.5 -12.367188 5.5 -11.921875 C 5.5 -11.472656 5.753906 -11.132812 6.265625 -10.90625 C 6.773438 -10.6875 7.597656 -10.457031 8.734375 -10.21875 C 10.015625 -9.945312 11.070312 -9.65625 11.90625 -9.34375 C 12.75 -9.03125 13.476562 -8.535156 14.09375 -7.859375 C 14.71875 -7.179688 15.03125 -6.257812 15.03125 -5.09375 C 15.03125 -4.082031 14.75 -3.164062 14.1875 -2.34375 C 13.625 -1.53125 12.78125 -0.878906 11.65625 -0.390625 C 10.539062 0.0976562 9.179688 0.34375 7.578125 0.34375 Z M 7.578125 0.34375 "/></g></g></g><g fill="#ffffff" fill-opacity="1"><g transform="translate(210.834164, 237.955472)"><g><path d="M 9.4375 0.34375 C 6.9375 0.34375 4.992188 -0.335938 3.609375 -1.703125 C 2.222656 -3.066406 1.53125 -4.992188 1.53125 -7.484375 L 1.53125 -16.796875 L 6.28125 -16.796875 L 6.28125 -7.625 C 6.28125 -4.9375 7.347656 -3.59375 9.484375 -3.59375 C 11.585938 -3.59375 12.640625 -4.9375 12.640625 -7.625 L 12.640625 -16.796875 L 17.328125 -16.796875 L 17.328125 -7.484375 C 17.328125 -4.992188 16.632812 -3.066406 15.25 -1.703125 C 13.863281 -0.335938 11.925781 0.34375 9.4375 0.34375 Z M 9.4375 0.34375 "/></g></g></g><g fill="#ffffff" fill-opacity="1"><g transform="translate(230.418208, 237.955472)"><g><path d="M 1.6875 -16.796875 L 6.4375 -16.796875 L 6.4375 -3.765625 L 14.453125 -3.765625 L 14.453125 0 L 1.6875 0 Z M 1.6875 -16.796875 "/></g></g></g><g fill="#ffffff" fill-opacity="1"><g transform="translate(245.778239, 237.955472)"><g><path d="M 5.25 -13.03125 L 0.09375 -13.03125 L 0.09375 -16.796875 L 15.140625 -16.796875 L 15.140625 -13.03125 L 10.015625 -13.03125 L 10.015625 0 L 5.25 0 Z M 5.25 -13.03125 "/></g></g></g><g fill="#ffffff" fill-opacity="1"><g transform="translate(261.738259, 237.955472)"><g><path d="M 12.9375 -3.265625 L 5.828125 -3.265625 L 4.515625 0 L -0.34375 0 L 7.078125 -16.796875 L 11.765625 -16.796875 L 19.203125 0 L 14.25 0 Z M 11.546875 -6.765625 L 9.390625 -12.140625 L 7.21875 -6.765625 Z M 11.546875 -6.765625 "/></g></g></g><g fill="#ffffff" fill-opacity="1"><g transform="translate(281.322304, 237.955472)"><g><path d="M 12.28125 0 L 8.8125 -5.203125 L 5.375 0 L -0.046875 0 L 6.078125 -8.5 L 0.21875 -16.796875 L 5.5625 -16.796875 L 8.921875 -11.953125 L 12.234375 -16.796875 L 17.375 -16.796875 L 11.515625 -8.6875 L 17.765625 0 Z M 12.28125 0 "/></g></g></g><g fill="#ffd700" fill-opacity="1"><g transform="translate(39.592967, 266.955482)"><g><path d="M 4 -10.171875 L 0.0625 -10.171875 L 0.0625 -11.203125 L 9.125 -11.203125 L 9.125 -10.171875 L 5.1875 -10.171875 L 5.1875 0 L 4 0 Z M 4 -10.171875 "/></g></g></g><g fill="#ffd700" fill-opacity="1"><g transform="translate(48.774756, 266.955482)"><g><path d="M 4.53125 -8.484375 C 5.625 -8.484375 6.460938 -8.207031 7.046875 -7.65625 C 7.640625 -7.101562 7.9375 -6.289062 7.9375 -5.21875 L 7.9375 0 L 6.84375 0 L 6.84375 -1.3125 C 6.59375 -0.875 6.21875 -0.53125 5.71875 -0.28125 C 5.21875 -0.0390625 4.628906 0.078125 3.953125 0.078125 C 3.015625 0.078125 2.265625 -0.144531 1.703125 -0.59375 C 1.148438 -1.039062 0.875 -1.632812 0.875 -2.375 C 0.875 -3.082031 1.132812 -3.65625 1.65625 -4.09375 C 2.175781 -4.53125 3 -4.75 4.125 -4.75 L 6.796875 -4.75 L 6.796875 -5.265625 C 6.796875 -5.992188 6.59375 -6.546875 6.1875 -6.921875 C 5.78125 -7.296875 5.191406 -7.484375 4.421875 -7.484375 C 3.878906 -7.484375 3.363281 -7.394531 2.875 -7.21875 C 2.382812 -7.039062 1.960938 -6.800781 1.609375 -6.5 L 1.109375 -7.34375 C 1.535156 -7.707031 2.046875 -7.988281 2.640625 -8.1875 C 3.234375 -8.382812 3.863281 -8.484375 4.53125 -8.484375 Z M 4.125 -0.8125 C 4.769531 -0.8125 5.320312 -0.957031 5.78125 -1.25 C 6.238281 -1.550781 6.578125 -1.976562 6.796875 -2.53125 L 6.796875 -3.90625 L 4.15625 -3.90625 C 2.71875 -3.90625 2 -3.40625 2 -2.40625 C 2 -1.90625 2.1875 -1.515625 2.5625 -1.234375 C 2.9375 -0.953125 3.457031 -0.8125 4.125 -0.8125 Z M 4.125 -0.8125 "/></g></g></g><g fill="#ffd700" fill-opacity="1"><g transform="translate(58.212492, 266.955482)"><g><path d="M 6.9375 0 L 4.265625 -3.515625 L 1.578125 0 L 0.296875 0 L 3.625 -4.3125 L 0.46875 -8.421875 L 1.75 -8.421875 L 4.265625 -5.125 L 6.796875 -8.421875 L 8.046875 -8.421875 L 4.875 -4.3125 L 8.234375 0 Z M 6.9375 0 "/></g></g></g><g fill="#ffd700" fill-opacity="1"><g transform="translate(66.754441, 266.955482)"><g><path d="M 4.53125 -8.484375 C 5.625 -8.484375 6.460938 -8.207031 7.046875 -7.65625 C 7.640625 -7.101562 7.9375 -6.289062 7.9375 -5.21875 L 7.9375 0 L 6.84375 0 L 6.84375 -1.3125 C 6.59375 -0.875 6.21875 -0.53125 5.71875 -0.28125 C 5.21875 -0.0390625 4.628906 0.078125 3.953125 0.078125 C 3.015625 0.078125 2.265625 -0.144531 1.703125 -0.59375 C 1.148438 -1.039062 0.875 -1.632812 0.875 -2.375 C 0.875 -3.082031 1.132812 -3.65625 1.65625 -4.09375 C 2.175781 -4.53125 3 -4.75 4.125 -4.75 L 6.796875 -4.75 L 6.796875 -5.265625 C 6.796875 -5.992188 6.59375 -6.546875 6.1875 -6.921875 C 5.78125 -7.296875 5.191406 -7.484375 4.421875 -7.484375 C 3.878906 -7.484375 3.363281 -7.394531 2.875 -7.21875 C 2.382812 -7.039062 1.960938 -6.800781 1.609375 -6.5 L 1.109375 -7.34375 C 1.535156 -7.707031 2.046875 -7.988281 2.640625 -8.1875 C 3.234375 -8.382812 3.863281 -8.484375 4.53125 -8.484375 Z M 4.125 -0.8125 C 4.769531 -0.8125 5.320312 -0.957031 5.78125 -1.25 C 6.238281 -1.550781 6.578125 -1.976562 6.796875 -2.53125 L 6.796875 -3.90625 L 4.15625 -3.90625 C 2.71875 -3.90625 2 -3.40625 2 -2.40625 C 2 -1.90625 2.1875 -1.515625 2.5625 -1.234375 C 2.9375 -0.953125 3.457031 -0.8125 4.125 -0.8125 Z M 4.125 -0.8125 "/></g></g></g><g fill="#ffd700" fill-opacity="1"><g transform="translate(76.192177, 266.955482)"><g><path d="M 6.015625 -0.515625 C 5.804688 -0.316406 5.539062 -0.164062 5.21875 -0.0625 C 4.90625 0.03125 4.578125 0.078125 4.234375 0.078125 C 3.453125 0.078125 2.847656 -0.132812 2.421875 -0.5625 C 1.992188 -0.988281 1.78125 -1.59375 1.78125 -2.375 L 1.78125 -7.453125 L 0.265625 -7.453125 L 0.265625 -8.421875 L 1.78125 -8.421875 L 1.78125 -10.25 L 2.90625 -10.25 L 2.90625 -8.421875 L 5.46875 -8.421875 L 5.46875 -7.453125 L 2.90625 -7.453125 L 2.90625 -2.4375 C 2.90625 -1.9375 3.03125 -1.550781 3.28125 -1.28125 C 3.53125 -1.019531 3.894531 -0.890625 4.375 -0.890625 C 4.601562 -0.890625 4.828125 -0.925781 5.046875 -1 C 5.265625 -1.082031 5.453125 -1.191406 5.609375 -1.328125 Z M 6.015625 -0.515625 "/></g></g></g><g fill="#ffd700" fill-opacity="1"><g transform="translate(82.686619, 266.955482)"><g><path d="M 1.578125 -8.421875 L 2.71875 -8.421875 L 2.71875 0 L 1.578125 0 Z M 2.15625 -10.25 C 1.914062 -10.25 1.71875 -10.328125 1.5625 -10.484375 C 1.40625 -10.648438 1.328125 -10.847656 1.328125 -11.078125 C 1.328125 -11.285156 1.40625 -11.46875 1.5625 -11.625 C 1.71875 -11.789062 1.914062 -11.875 2.15625 -11.875 C 2.382812 -11.875 2.578125 -11.796875 2.734375 -11.640625 C 2.898438 -11.484375 2.984375 -11.300781 2.984375 -11.09375 C 2.984375 -10.851562 2.898438 -10.648438 2.734375 -10.484375 C 2.578125 -10.328125 2.382812 -10.25 2.15625 -10.25 Z M 2.15625 -10.25 "/></g></g></g><g fill="#ffd700" fill-opacity="1"><g transform="translate(86.989586, 266.955482)"><g><path d="M 5.03125 0.078125 C 4.21875 0.078125 3.484375 -0.101562 2.828125 -0.46875 C 2.179688 -0.84375 1.671875 -1.351562 1.296875 -2 C 0.921875 -2.644531 0.734375 -3.378906 0.734375 -4.203125 C 0.734375 -5.023438 0.921875 -5.757812 1.296875 -6.40625 C 1.671875 -7.0625 2.179688 -7.570312 2.828125 -7.9375 C 3.484375 -8.300781 4.21875 -8.484375 5.03125 -8.484375 C 5.832031 -8.484375 6.554688 -8.300781 7.203125 -7.9375 C 7.859375 -7.570312 8.367188 -7.0625 8.734375 -6.40625 C 9.109375 -5.757812 9.296875 -5.023438 9.296875 -4.203125 C 9.296875 -3.378906 9.109375 -2.644531 8.734375 -2 C 8.367188 -1.351562 7.859375 -0.84375 7.203125 -0.46875 C 6.554688 -0.101562 5.832031 0.078125 5.03125 0.078125 Z M 5.03125 -0.921875 C 5.625 -0.921875 6.15625 -1.054688 6.625 -1.328125 C 7.101562 -1.609375 7.472656 -2 7.734375 -2.5 C 8.003906 -3 8.140625 -3.566406 8.140625 -4.203125 C 8.140625 -4.847656 8.003906 -5.421875 7.734375 -5.921875 C 7.472656 -6.421875 7.101562 -6.804688 6.625 -7.078125 C 6.15625 -7.347656 5.625 -7.484375 5.03125 -7.484375 C 4.425781 -7.484375 3.882812 -7.347656 3.40625 -7.078125 C 2.9375 -6.804688 2.566406 -6.421875 2.296875 -5.921875 C 2.023438 -5.421875 1.890625 -4.847656 1.890625 -4.203125 C 1.890625 -3.566406 2.023438 -3 2.296875 -2.5 C 2.566406 -2 2.9375 -1.609375 3.40625 -1.328125 C 3.882812 -1.054688 4.425781 -0.921875 5.03125 -0.921875 Z M 5.03125 -0.921875 "/></g></g></g><g fill="#ffd700" fill-opacity="1"><g transform="translate(97.019176, 266.955482)"><g><path d="M 5.875 -8.484375 C 6.925781 -8.484375 7.765625 -8.175781 8.390625 -7.5625 C 9.015625 -6.945312 9.328125 -6.050781 9.328125 -4.875 L 9.328125 0 L 8.1875 0 L 8.1875 -4.765625 C 8.1875 -5.640625 7.96875 -6.304688 7.53125 -6.765625 C 7.09375 -7.222656 6.46875 -7.453125 5.65625 -7.453125 C 4.75 -7.453125 4.03125 -7.179688 3.5 -6.640625 C 2.976562 -6.109375 2.71875 -5.367188 2.71875 -4.421875 L 2.71875 0 L 1.578125 0 L 1.578125 -8.421875 L 2.671875 -8.421875 L 2.671875 -6.859375 C 2.984375 -7.367188 3.410156 -7.765625 3.953125 -8.046875 C 4.503906 -8.335938 5.144531 -8.484375 5.875 -8.484375 Z M 5.875 -8.484375 "/></g></g></g><g fill="#ffd700" fill-opacity="1"><g transform="translate(107.84857, 266.955482)"><g/></g></g><g fill="#ffd700" fill-opacity="1"><g transform="translate(112.039568, 266.955482)"><g><path d="M 1.828125 -11.875 L 2.875 -11.875 L 2.875 3.109375 L 1.828125 3.109375 Z M 1.828125 -11.875 "/></g></g></g><g fill="#ffd700" fill-opacity="1"><g transform="translate(116.758436, 266.955482)"><g/></g></g><g fill="#ffd700" fill-opacity="1"><g transform="translate(120.949434, 266.955482)"><g><path d="M 8.875 -5.78125 C 9.613281 -5.613281 10.179688 -5.289062 10.578125 -4.8125 C 10.984375 -4.34375 11.1875 -3.734375 11.1875 -2.984375 C 11.1875 -2.023438 10.832031 -1.285156 10.125 -0.765625 C 9.414062 -0.253906 8.363281 0 6.96875 0 L 1.828125 0 L 1.828125 -11.203125 L 6.65625 -11.203125 C 7.90625 -11.203125 8.875 -10.953125 9.5625 -10.453125 C 10.25 -9.953125 10.59375 -9.238281 10.59375 -8.3125 C 10.59375 -7.695312 10.441406 -7.171875 10.140625 -6.734375 C 9.835938 -6.304688 9.414062 -5.988281 8.875 -5.78125 Z M 3.015625 -10.21875 L 3.015625 -6.15625 L 6.578125 -6.15625 C 7.484375 -6.15625 8.179688 -6.328125 8.671875 -6.671875 C 9.160156 -7.023438 9.40625 -7.53125 9.40625 -8.1875 C 9.40625 -8.851562 9.160156 -9.359375 8.671875 -9.703125 C 8.179688 -10.046875 7.484375 -10.21875 6.578125 -10.21875 Z M 6.953125 -0.96875 C 7.960938 -0.96875 8.722656 -1.140625 9.234375 -1.484375 C 9.742188 -1.828125 10 -2.363281 10 -3.09375 C 10 -4.488281 8.984375 -5.1875 6.953125 -5.1875 L 3.015625 -5.1875 L 3.015625 -0.96875 Z M 6.953125 -0.96875 "/></g></g></g><g fill="#ffd700" fill-opacity="1"><g transform="translate(133.010533, 266.955482)"><g><path d="M 5.03125 0.078125 C 4.21875 0.078125 3.484375 -0.101562 2.828125 -0.46875 C 2.179688 -0.84375 1.671875 -1.351562 1.296875 -2 C 0.921875 -2.644531 0.734375 -3.378906 0.734375 -4.203125 C 0.734375 -5.023438 0.921875 -5.757812 1.296875 -6.40625 C 1.671875 -7.0625 2.179688 -7.570312 2.828125 -7.9375 C 3.484375 -8.300781 4.21875 -8.484375 5.03125 -8.484375 C 5.832031 -8.484375 6.554688 -8.300781 7.203125 -7.9375 C 7.859375 -7.570312 8.367188 -7.0625 8.734375 -6.40625 C 9.109375 -5.757812 9.296875 -5.023438 9.296875 -4.203125 C 9.296875 -3.378906 9.109375 -2.644531 8.734375 -2 C 8.367188 -1.351562 7.859375 -0.84375 7.203125 -0.46875 C 6.554688 -0.101562 5.832031 0.078125 5.03125 0.078125 Z M 5.03125 -0.921875 C 5.625 -0.921875 6.15625 -1.054688 6.625 -1.328125 C 7.101562 -1.609375 7.472656 -2 7.734375 -2.5 C 8.003906 -3 8.140625 -3.566406 8.140625 -4.203125 C 8.140625 -4.847656 8.003906 -5.421875 7.734375 -5.921875 C 7.472656 -6.421875 7.101562 -6.804688 6.625 -7.078125 C 6.15625 -7.347656 5.625 -7.484375 5.03125 -7.484375 C 4.425781 -7.484375 3.882812 -7.347656 3.40625 -7.078125 C 2.9375 -6.804688 2.566406 -6.421875 2.296875 -5.921875 C 2.023438 -5.421875 1.890625 -4.847656 1.890625 -4.203125 C 1.890625 -3.566406 2.023438 -3 2.296875 -2.5 C 2.566406 -2 2.9375 -1.609375 3.40625 -1.328125 C 3.882812 -1.054688 4.425781 -0.921875 5.03125 -0.921875 Z M 5.03125 -0.921875 "/></g></g></g><g fill="#ffd700" fill-opacity="1"><g transform="translate(143.040123, 266.955482)"><g><path d="M 5.03125 0.078125 C 4.21875 0.078125 3.484375 -0.101562 2.828125 -0.46875 C 2.179688 -0.84375 1.671875 -1.351562 1.296875 -2 C 0.921875 -2.644531 0.734375 -3.378906 0.734375 -4.203125 C 0.734375 -5.023438 0.921875 -5.757812 1.296875 -6.40625 C 1.671875 -7.0625 2.179688 -7.570312 2.828125 -7.9375 C 3.484375 -8.300781 4.21875 -8.484375 5.03125 -8.484375 C 5.832031 -8.484375 6.554688 -8.300781 7.203125 -7.9375 C 7.859375 -7.570312 8.367188 -7.0625 8.734375 -6.40625 C 9.109375 -5.757812 9.296875 -5.023438 9.296875 -4.203125 C 9.296875 -3.378906 9.109375 -2.644531 8.734375 -2 C 8.367188 -1.351562 7.859375 -0.84375 7.203125 -0.46875 C 6.554688 -0.101562 5.832031 0.078125 5.03125 0.078125 Z M 5.03125 -0.921875 C 5.625 -0.921875 6.15625 -1.054688 6.625 -1.328125 C 7.101562 -1.609375 7.472656 -2 7.734375 -2.5 C 8.003906 -3 8.140625 -3.566406 8.140625 -4.203125 C 8.140625 -4.847656 8.003906 -5.421875 7.734375 -5.921875 C 7.472656 -6.421875 7.101562 -6.804688 6.625 -7.078125 C 6.15625 -7.347656 5.625 -7.484375 5.03125 -7.484375 C 4.425781 -7.484375 3.882812 -7.347656 3.40625 -7.078125 C 2.9375 -6.804688 2.566406 -6.421875 2.296875 -5.921875 C 2.023438 -5.421875 1.890625 -4.847656 1.890625 -4.203125 C 1.890625 -3.566406 2.023438 -3 2.296875 -2.5 C 2.566406 -2 2.9375 -1.609375 3.40625 -1.328125 C 3.882812 -1.054688 4.425781 -0.921875 5.03125 -0.921875 Z M 5.03125 -0.921875 "/></g></g></g><g fill="#ffd700" fill-opacity="1"><g transform="translate(153.069713, 266.955482)"><g><path d="M 4.703125 -4.21875 L 2.71875 -2.40625 L 2.71875 0 L 1.578125 0 L 1.578125 -11.875 L 2.71875 -11.875 L 2.71875 -3.828125 L 7.75 -8.421875 L 9.15625 -8.421875 L 5.546875 -4.96875 L 9.484375 0 L 8.09375 0 Z M 4.703125 -4.21875 "/></g></g></g><g fill="#ffd700" fill-opacity="1"><g transform="translate(162.683402, 266.955482)"><g><path d="M 4.703125 -4.21875 L 2.71875 -2.40625 L 2.71875 0 L 1.578125 0 L 1.578125 -11.875 L 2.71875 -11.875 L 2.71875 -3.828125 L 7.75 -8.421875 L 9.15625 -8.421875 L 5.546875 -4.96875 L 9.484375 0 L 8.09375 0 Z M 4.703125 -4.21875 "/></g></g></g><g fill="#ffd700" fill-opacity="1"><g transform="translate(172.297091, 266.955482)"><g><path d="M 8.90625 -3.859375 L 1.875 -3.859375 C 1.9375 -2.984375 2.269531 -2.273438 2.875 -1.734375 C 3.488281 -1.191406 4.257812 -0.921875 5.1875 -0.921875 C 5.707031 -0.921875 6.1875 -1.015625 6.625 -1.203125 C 7.0625 -1.390625 7.441406 -1.664062 7.765625 -2.03125 L 8.40625 -1.296875 C 8.03125 -0.847656 7.5625 -0.503906 7 -0.265625 C 6.4375 -0.0351562 5.820312 0.078125 5.15625 0.078125 C 4.289062 0.078125 3.523438 -0.101562 2.859375 -0.46875 C 2.191406 -0.84375 1.671875 -1.351562 1.296875 -2 C 0.921875 -2.644531 0.734375 -3.378906 0.734375 -4.203125 C 0.734375 -5.023438 0.910156 -5.757812 1.265625 -6.40625 C 1.628906 -7.0625 2.125 -7.570312 2.75 -7.9375 C 3.375 -8.300781 4.070312 -8.484375 4.84375 -8.484375 C 5.625 -8.484375 6.320312 -8.300781 6.9375 -7.9375 C 7.5625 -7.570312 8.046875 -7.066406 8.390625 -6.421875 C 8.742188 -5.773438 8.921875 -5.035156 8.921875 -4.203125 Z M 4.84375 -7.5 C 4.03125 -7.5 3.347656 -7.238281 2.796875 -6.71875 C 2.253906 -6.207031 1.945312 -5.535156 1.875 -4.703125 L 7.84375 -4.703125 C 7.769531 -5.535156 7.457031 -6.207031 6.90625 -6.71875 C 6.351562 -7.238281 5.664062 -7.5 4.84375 -7.5 Z M 4.84375 -7.5 "/></g></g></g><g fill="#ffd700" fill-opacity="1"><g transform="translate(181.958764, 266.955482)"><g><path d="M 8.90625 -3.859375 L 1.875 -3.859375 C 1.9375 -2.984375 2.269531 -2.273438 2.875 -1.734375 C 3.488281 -1.191406 4.257812 -0.921875 5.1875 -0.921875 C 5.707031 -0.921875 6.1875 -1.015625 6.625 -1.203125 C 7.0625 -1.390625 7.441406 -1.664062 7.765625 -2.03125 L 8.40625 -1.296875 C 8.03125 -0.847656 7.5625 -0.503906 7 -0.265625 C 6.4375 -0.0351562 5.820312 0.078125 5.15625 0.078125 C 4.289062 0.078125 3.523438 -0.101562 2.859375 -0.46875 C 2.191406 -0.84375 1.671875 -1.351562 1.296875 -2 C 0.921875 -2.644531 0.734375 -3.378906 0.734375 -4.203125 C 0.734375 -5.023438 0.910156 -5.757812 1.265625 -6.40625 C 1.628906 -7.0625 2.125 -7.570312 2.75 -7.9375 C 3.375 -8.300781 4.070312 -8.484375 4.84375 -8.484375 C 5.625 -8.484375 6.320312 -8.300781 6.9375 -7.9375 C 7.5625 -7.570312 8.046875 -7.066406 8.390625 -6.421875 C 8.742188 -5.773438 8.921875 -5.035156 8.921875 -4.203125 Z M 4.84375 -7.5 C 4.03125 -7.5 3.347656 -7.238281 2.796875 -6.71875 C 2.253906 -6.207031 1.945312 -5.535156 1.875 -4.703125 L 7.84375 -4.703125 C 7.769531 -5.535156 7.457031 -6.207031 6.90625 -6.71875 C 6.351562 -7.238281 5.664062 -7.5 4.84375 -7.5 Z M 4.84375 -7.5 "/></g></g></g><g fill="#ffd700" fill-opacity="1"><g transform="translate(191.620438, 266.955482)"><g><path d="M 5.921875 -8.484375 C 6.710938 -8.484375 7.425781 -8.300781 8.0625 -7.9375 C 8.707031 -7.582031 9.207031 -7.078125 9.5625 -6.421875 C 9.925781 -5.773438 10.109375 -5.035156 10.109375 -4.203125 C 10.109375 -3.359375 9.925781 -2.609375 9.5625 -1.953125 C 9.207031 -1.304688 8.710938 -0.804688 8.078125 -0.453125 C 7.441406 -0.0976562 6.722656 0.078125 5.921875 0.078125 C 5.234375 0.078125 4.613281 -0.0625 4.0625 -0.34375 C 3.519531 -0.625 3.070312 -1.035156 2.71875 -1.578125 L 2.71875 3.109375 L 1.578125 3.109375 L 1.578125 -8.421875 L 2.671875 -8.421875 L 2.671875 -6.75 C 3.015625 -7.300781 3.460938 -7.726562 4.015625 -8.03125 C 4.578125 -8.332031 5.210938 -8.484375 5.921875 -8.484375 Z M 5.84375 -0.921875 C 6.425781 -0.921875 6.957031 -1.054688 7.4375 -1.328125 C 7.914062 -1.609375 8.289062 -2 8.5625 -2.5 C 8.832031 -3 8.96875 -3.566406 8.96875 -4.203125 C 8.96875 -4.847656 8.832031 -5.414062 8.5625 -5.90625 C 8.289062 -6.40625 7.914062 -6.789062 7.4375 -7.0625 C 6.957031 -7.34375 6.425781 -7.484375 5.84375 -7.484375 C 5.238281 -7.484375 4.695312 -7.34375 4.21875 -7.0625 C 3.75 -6.789062 3.378906 -6.40625 3.109375 -5.90625 C 2.835938 -5.414062 2.703125 -4.847656 2.703125 -4.203125 C 2.703125 -3.566406 2.835938 -3 3.109375 -2.5 C 3.378906 -2 3.75 -1.609375 4.21875 -1.328125 C 4.695312 -1.054688 5.238281 -0.921875 5.84375 -0.921875 Z M 5.84375 -0.921875 "/></g></g></g><g fill="#ffd700" fill-opacity="1"><g transform="translate(202.465832, 266.955482)"><g><path d="M 1.578125 -8.421875 L 2.71875 -8.421875 L 2.71875 0 L 1.578125 0 Z M 2.15625 -10.25 C 1.914062 -10.25 1.71875 -10.328125 1.5625 -10.484375 C 1.40625 -10.648438 1.328125 -10.847656 1.328125 -11.078125 C 1.328125 -11.285156 1.40625 -11.46875 1.5625 -11.625 C 1.71875 -11.789062 1.914062 -11.875 2.15625 -11.875 C 2.382812 -11.875 2.578125 -11.796875 2.734375 -11.640625 C 2.898438 -11.484375 2.984375 -11.300781 2.984375 -11.09375 C 2.984375 -10.851562 2.898438 -10.648438 2.734375 -10.484375 C 2.578125 -10.328125 2.382812 -10.25 2.15625 -10.25 Z M 2.15625 -10.25 "/></g></g></g><g fill="#ffd700" fill-opacity="1"><g transform="translate(206.768798, 266.955482)"><g><path d="M 5.875 -8.484375 C 6.925781 -8.484375 7.765625 -8.175781 8.390625 -7.5625 C 9.015625 -6.945312 9.328125 -6.050781 9.328125 -4.875 L 9.328125 0 L 8.1875 0 L 8.1875 -4.765625 C 8.1875 -5.640625 7.96875 -6.304688 7.53125 -6.765625 C 7.09375 -7.222656 6.46875 -7.453125 5.65625 -7.453125 C 4.75 -7.453125 4.03125 -7.179688 3.5 -6.640625 C 2.976562 -6.109375 2.71875 -5.367188 2.71875 -4.421875 L 2.71875 0 L 1.578125 0 L 1.578125 -8.421875 L 2.671875 -8.421875 L 2.671875 -6.859375 C 2.984375 -7.367188 3.410156 -7.765625 3.953125 -8.046875 C 4.503906 -8.335938 5.144531 -8.484375 5.875 -8.484375 Z M 5.875 -8.484375 "/></g></g></g><g fill="#ffd700" fill-opacity="1"><g transform="translate(217.598193, 266.955482)"><g><path d="M 9.375 -8.421875 L 9.375 -1.03125 C 9.375 0.40625 9.023438 1.46875 8.328125 2.15625 C 7.628906 2.84375 6.578125 3.1875 5.171875 3.1875 C 4.390625 3.1875 3.648438 3.070312 2.953125 2.84375 C 2.253906 2.613281 1.6875 2.296875 1.25 1.890625 L 1.828125 1.03125 C 2.234375 1.382812 2.722656 1.660156 3.296875 1.859375 C 3.878906 2.066406 4.492188 2.171875 5.140625 2.171875 C 6.203125 2.171875 6.984375 1.921875 7.484375 1.421875 C 7.984375 0.929688 8.234375 0.164062 8.234375 -0.875 L 8.234375 -1.953125 C 7.890625 -1.421875 7.429688 -1.015625 6.859375 -0.734375 C 6.285156 -0.453125 5.648438 -0.3125 4.953125 -0.3125 C 4.171875 -0.3125 3.457031 -0.484375 2.8125 -0.828125 C 2.164062 -1.179688 1.65625 -1.671875 1.28125 -2.296875 C 0.914062 -2.921875 0.734375 -3.628906 0.734375 -4.421875 C 0.734375 -5.203125 0.914062 -5.898438 1.28125 -6.515625 C 1.65625 -7.140625 2.160156 -7.625 2.796875 -7.96875 C 3.441406 -8.3125 4.160156 -8.484375 4.953125 -8.484375 C 5.671875 -8.484375 6.316406 -8.335938 6.890625 -8.046875 C 7.472656 -7.753906 7.9375 -7.335938 8.28125 -6.796875 L 8.28125 -8.421875 Z M 5.078125 -1.328125 C 5.679688 -1.328125 6.226562 -1.457031 6.71875 -1.71875 C 7.207031 -1.976562 7.585938 -2.34375 7.859375 -2.8125 C 8.128906 -3.28125 8.265625 -3.816406 8.265625 -4.421875 C 8.265625 -5.015625 8.128906 -5.539062 7.859375 -6 C 7.585938 -6.46875 7.207031 -6.832031 6.71875 -7.09375 C 6.238281 -7.351562 5.691406 -7.484375 5.078125 -7.484375 C 4.460938 -7.484375 3.910156 -7.351562 3.421875 -7.09375 C 2.941406 -6.84375 2.566406 -6.484375 2.296875 -6.015625 C 2.023438 -5.546875 1.890625 -5.015625 1.890625 -4.421875 C 1.890625 -3.816406 2.023438 -3.28125 2.296875 -2.8125 C 2.566406 -2.34375 2.941406 -1.976562 3.421875 -1.71875 C 3.910156 -1.457031 4.460938 -1.328125 5.078125 -1.328125 Z M 5.078125 -1.328125 "/></g></g></g><g fill="#ffd700" fill-opacity="1"><g transform="translate(228.571554, 266.955482)"><g/></g></g><g fill="#ffd700" fill-opacity="1"><g transform="translate(232.762541, 266.955482)"><g><path d="M 1.828125 -11.875 L 2.875 -11.875 L 2.875 3.109375 L 1.828125 3.109375 Z M 1.828125 -11.875 "/></g></g></g><g fill="#ffd700" fill-opacity="1"><g transform="translate(237.481397, 266.955482)"><g/></g></g><g fill="#ffd700" fill-opacity="1"><g transform="translate(241.672406, 266.955482)"><g><path d="M 8.84375 -2.984375 L 2.609375 -2.984375 L 1.265625 0 L 0.03125 0 L 5.15625 -11.203125 L 6.3125 -11.203125 L 11.4375 0 L 10.1875 0 Z M 8.421875 -3.953125 L 5.734375 -9.96875 L 3.046875 -3.953125 Z M 8.421875 -3.953125 "/></g></g></g><g fill="#ffd700" fill-opacity="1"><g transform="translate(253.141652, 266.955482)"><g><path d="M 5.078125 0.078125 C 4.242188 0.078125 3.5 -0.101562 2.84375 -0.46875 C 2.1875 -0.832031 1.671875 -1.335938 1.296875 -1.984375 C 0.921875 -2.640625 0.734375 -3.378906 0.734375 -4.203125 C 0.734375 -5.023438 0.921875 -5.757812 1.296875 -6.40625 C 1.671875 -7.0625 2.1875 -7.570312 2.84375 -7.9375 C 3.5 -8.300781 4.242188 -8.484375 5.078125 -8.484375 C 5.796875 -8.484375 6.441406 -8.335938 7.015625 -8.046875 C 7.585938 -7.765625 8.039062 -7.351562 8.375 -6.8125 L 7.515625 -6.234375 C 7.242188 -6.648438 6.894531 -6.960938 6.46875 -7.171875 C 6.039062 -7.378906 5.578125 -7.484375 5.078125 -7.484375 C 4.460938 -7.484375 3.910156 -7.347656 3.421875 -7.078125 C 2.941406 -6.804688 2.566406 -6.421875 2.296875 -5.921875 C 2.023438 -5.421875 1.890625 -4.847656 1.890625 -4.203125 C 1.890625 -3.554688 2.023438 -2.984375 2.296875 -2.484375 C 2.566406 -1.992188 2.941406 -1.609375 3.421875 -1.328125 C 3.910156 -1.054688 4.460938 -0.921875 5.078125 -0.921875 C 5.578125 -0.921875 6.039062 -1.019531 6.46875 -1.21875 C 6.894531 -1.425781 7.242188 -1.738281 7.515625 -2.15625 L 8.375 -1.578125 C 8.039062 -1.035156 7.582031 -0.625 7 -0.34375 C 6.425781 -0.0625 5.785156 0.078125 5.078125 0.078125 Z M 5.078125 0.078125 "/></g></g></g><g fill="#ffd700" fill-opacity="1"><g transform="translate(262.147488, 266.955482)"><g><path d="M 5.078125 0.078125 C 4.242188 0.078125 3.5 -0.101562 2.84375 -0.46875 C 2.1875 -0.832031 1.671875 -1.335938 1.296875 -1.984375 C 0.921875 -2.640625 0.734375 -3.378906 0.734375 -4.203125 C 0.734375 -5.023438 0.921875 -5.757812 1.296875 -6.40625 C 1.671875 -7.0625 2.1875 -7.570312 2.84375 -7.9375 C 3.5 -8.300781 4.242188 -8.484375 5.078125 -8.484375 C 5.796875 -8.484375 6.441406 -8.335938 7.015625 -8.046875 C 7.585938 -7.765625 8.039062 -7.351562 8.375 -6.8125 L 7.515625 -6.234375 C 7.242188 -6.648438 6.894531 -6.960938 6.46875 -7.171875 C 6.039062 -7.378906 5.578125 -7.484375 5.078125 -7.484375 C 4.460938 -7.484375 3.910156 -7.347656 3.421875 -7.078125 C 2.941406 -6.804688 2.566406 -6.421875 2.296875 -5.921875 C 2.023438 -5.421875 1.890625 -4.847656 1.890625 -4.203125 C 1.890625 -3.554688 2.023438 -2.984375 2.296875 -2.484375 C 2.566406 -1.992188 2.941406 -1.609375 3.421875 -1.328125 C 3.910156 -1.054688 4.460938 -0.921875 5.078125 -0.921875 C 5.578125 -0.921875 6.039062 -1.019531 6.46875 -1.21875 C 6.894531 -1.425781 7.242188 -1.738281 7.515625 -2.15625 L 8.375 -1.578125 C 8.039062 -1.035156 7.582031 -0.625 7 -0.34375 C 6.425781 -0.0625 5.785156 0.078125 5.078125 0.078125 Z M 5.078125 0.078125 "/></g></g></g><g fill="#ffd700" fill-opacity="1"><g transform="translate(271.153323, 266.955482)"><g><path d="M 5.03125 0.078125 C 4.21875 0.078125 3.484375 -0.101562 2.828125 -0.46875 C 2.179688 -0.84375 1.671875 -1.351562 1.296875 -2 C 0.921875 -2.644531 0.734375 -3.378906 0.734375 -4.203125 C 0.734375 -5.023438 0.921875 -5.757812 1.296875 -6.40625 C 1.671875 -7.0625 2.179688 -7.570312 2.828125 -7.9375 C 3.484375 -8.300781 4.21875 -8.484375 5.03125 -8.484375 C 5.832031 -8.484375 6.554688 -8.300781 7.203125 -7.9375 C 7.859375 -7.570312 8.367188 -7.0625 8.734375 -6.40625 C 9.109375 -5.757812 9.296875 -5.023438 9.296875 -4.203125 C 9.296875 -3.378906 9.109375 -2.644531 8.734375 -2 C 8.367188 -1.351562 7.859375 -0.84375 7.203125 -0.46875 C 6.554688 -0.101562 5.832031 0.078125 5.03125 0.078125 Z M 5.03125 -0.921875 C 5.625 -0.921875 6.15625 -1.054688 6.625 -1.328125 C 7.101562 -1.609375 7.472656 -2 7.734375 -2.5 C 8.003906 -3 8.140625 -3.566406 8.140625 -4.203125 C 8.140625 -4.847656 8.003906 -5.421875 7.734375 -5.921875 C 7.472656 -6.421875 7.101562 -6.804688 6.625 -7.078125 C 6.15625 -7.347656 5.625 -7.484375 5.03125 -7.484375 C 4.425781 -7.484375 3.882812 -7.347656 3.40625 -7.078125 C 2.9375 -6.804688 2.566406 -6.421875 2.296875 -5.921875 C 2.023438 -5.421875 1.890625 -4.847656 1.890625 -4.203125 C 1.890625 -3.566406 2.023438 -3 2.296875 -2.5 C 2.566406 -2 2.9375 -1.609375 3.40625 -1.328125 C 3.882812 -1.054688 4.425781 -0.921875 5.03125 -0.921875 Z M 5.03125 -0.921875 "/></g></g></g><g fill="#ffd700" fill-opacity="1"><g transform="translate(281.182902, 266.955482)"><g><path d="M 9.171875 -8.421875 L 9.171875 0 L 8.078125 0 L 8.078125 -1.53125 C 7.773438 -1.019531 7.363281 -0.625 6.84375 -0.34375 C 6.320312 -0.0625 5.726562 0.078125 5.0625 0.078125 C 3.957031 0.078125 3.085938 -0.226562 2.453125 -0.84375 C 1.816406 -1.457031 1.5 -2.351562 1.5 -3.53125 L 1.5 -8.421875 L 2.640625 -8.421875 L 2.640625 -3.640625 C 2.640625 -2.753906 2.859375 -2.082031 3.296875 -1.625 C 3.734375 -1.164062 4.359375 -0.9375 5.171875 -0.9375 C 6.054688 -0.9375 6.753906 -1.207031 7.265625 -1.75 C 7.773438 -2.289062 8.03125 -3.039062 8.03125 -4 L 8.03125 -8.421875 Z M 9.171875 -8.421875 "/></g></g></g><g fill="#ffd700" fill-opacity="1"><g transform="translate(291.948313, 266.955482)"><g><path d="M 5.875 -8.484375 C 6.925781 -8.484375 7.765625 -8.175781 8.390625 -7.5625 C 9.015625 -6.945312 9.328125 -6.050781 9.328125 -4.875 L 9.328125 0 L 8.1875 0 L 8.1875 -4.765625 C 8.1875 -5.640625 7.96875 -6.304688 7.53125 -6.765625 C 7.09375 -7.222656 6.46875 -7.453125 5.65625 -7.453125 C 4.75 -7.453125 4.03125 -7.179688 3.5 -6.640625 C 2.976562 -6.109375 2.71875 -5.367188 2.71875 -4.421875 L 2.71875 0 L 1.578125 0 L 1.578125 -8.421875 L 2.671875 -8.421875 L 2.671875 -6.859375 C 2.984375 -7.367188 3.410156 -7.765625 3.953125 -8.046875 C 4.503906 -8.335938 5.144531 -8.484375 5.875 -8.484375 Z M 5.875 -8.484375 "/></g></g></g><g fill="#ffd700" fill-opacity="1"><g transform="translate(302.777719, 266.955482)"><g><path d="M 6.015625 -0.515625 C 5.804688 -0.316406 5.539062 -0.164062 5.21875 -0.0625 C 4.90625 0.03125 4.578125 0.078125 4.234375 0.078125 C 3.453125 0.078125 2.847656 -0.132812 2.421875 -0.5625 C 1.992188 -0.988281 1.78125 -1.59375 1.78125 -2.375 L 1.78125 -7.453125 L 0.265625 -7.453125 L 0.265625 -8.421875 L 1.78125 -8.421875 L 1.78125 -10.25 L 2.90625 -10.25 L 2.90625 -8.421875 L 5.46875 -8.421875 L 5.46875 -7.453125 L 2.90625 -7.453125 L 2.90625 -2.4375 C 2.90625 -1.9375 3.03125 -1.550781 3.28125 -1.28125 C 3.53125 -1.019531 3.894531 -0.890625 4.375 -0.890625 C 4.601562 -0.890625 4.828125 -0.925781 5.046875 -1 C 5.265625 -1.082031 5.453125 -1.191406 5.609375 -1.328125 Z M 6.015625 -0.515625 "/></g></g></g><g fill="#ffd700" fill-opacity="1"><g transform="translate(309.272149, 266.955482)"><g><path d="M 1.578125 -8.421875 L 2.71875 -8.421875 L 2.71875 0 L 1.578125 0 Z M 2.15625 -10.25 C 1.914062 -10.25 1.71875 -10.328125 1.5625 -10.484375 C 1.40625 -10.648438 1.328125 -10.847656 1.328125 -11.078125 C 1.328125 -11.285156 1.40625 -11.46875 1.5625 -11.625 C 1.71875 -11.789062 1.914062 -11.875 2.15625 -11.875 C 2.382812 -11.875 2.578125 -11.796875 2.734375 -11.640625 C 2.898438 -11.484375 2.984375 -11.300781 2.984375 -11.09375 C 2.984375 -10.851562 2.898438 -10.648438 2.734375 -10.484375 C 2.578125 -10.328125 2.382812 -10.25 2.15625 -10.25 Z M 2.15625 -10.25 "/></g></g></g><g fill="#ffd700" fill-opacity="1"><g transform="translate(313.575127, 266.955482)"><g><path d="M 5.875 -8.484375 C 6.925781 -8.484375 7.765625 -8.175781 8.390625 -7.5625 C 9.015625 -6.945312 9.328125 -6.050781 9.328125 -4.875 L 9.328125 0 L 8.1875 0 L 8.1875 -4.765625 C 8.1875 -5.640625 7.96875 -6.304688 7.53125 -6.765625 C 7.09375 -7.222656 6.46875 -7.453125 5.65625 -7.453125 C 4.75 -7.453125 4.03125 -7.179688 3.5 -6.640625 C 2.976562 -6.109375 2.71875 -5.367188 2.71875 -4.421875 L 2.71875 0 L 1.578125 0 L 1.578125 -8.421875 L 2.671875 -8.421875 L 2.671875 -6.859375 C 2.984375 -7.367188 3.410156 -7.765625 3.953125 -8.046875 C 4.503906 -8.335938 5.144531 -8.484375 5.875 -8.484375 Z M 5.875 -8.484375 "/></g></g></g><g fill="#ffd700" fill-opacity="1"><g transform="translate(324.404533, 266.955482)"><g><path d="M 9.375 -8.421875 L 9.375 -1.03125 C 9.375 0.40625 9.023438 1.46875 8.328125 2.15625 C 7.628906 2.84375 6.578125 3.1875 5.171875 3.1875 C 4.390625 3.1875 3.648438 3.070312 2.953125 2.84375 C 2.253906 2.613281 1.6875 2.296875 1.25 1.890625 L 1.828125 1.03125 C 2.234375 1.382812 2.722656 1.660156 3.296875 1.859375 C 3.878906 2.066406 4.492188 2.171875 5.140625 2.171875 C 6.203125 2.171875 6.984375 1.921875 7.484375 1.421875 C 7.984375 0.929688 8.234375 0.164062 8.234375 -0.875 L 8.234375 -1.953125 C 7.890625 -1.421875 7.429688 -1.015625 6.859375 -0.734375 C 6.285156 -0.453125 5.648438 -0.3125 4.953125 -0.3125 C 4.171875 -0.3125 3.457031 -0.484375 2.8125 -0.828125 C 2.164062 -1.179688 1.65625 -1.671875 1.28125 -2.296875 C 0.914062 -2.921875 0.734375 -3.628906 0.734375 -4.421875 C 0.734375 -5.203125 0.914062 -5.898438 1.28125 -6.515625 C 1.65625 -7.140625 2.160156 -7.625 2.796875 -7.96875 C 3.441406 -8.3125 4.160156 -8.484375 4.953125 -8.484375 C 5.671875 -8.484375 6.316406 -8.335938 6.890625 -8.046875 C 7.472656 -7.753906 7.9375 -7.335938 8.28125 -6.796875 L 8.28125 -8.421875 Z M 5.078125 -1.328125 C 5.679688 -1.328125 6.226562 -1.457031 6.71875 -1.71875 C 7.207031 -1.976562 7.585938 -2.34375 7.859375 -2.8125 C 8.128906 -3.28125 8.265625 -3.816406 8.265625 -4.421875 C 8.265625 -5.015625 8.128906 -5.539062 7.859375 -6 C 7.585938 -6.46875 7.207031 -6.832031 6.71875 -7.09375 C 6.238281 -7.351562 5.691406 -7.484375 5.078125 -7.484375 C 4.460938 -7.484375 3.910156 -7.351562 3.421875 -7.09375 C 2.941406 -6.84375 2.566406 -6.484375 2.296875 -6.015625 C 2.023438 -5.546875 1.890625 -5.015625 1.890625 -4.421875 C 1.890625 -3.816406 2.023438 -3.28125 2.296875 -2.8125 C 2.566406 -2.34375 2.941406 -1.976562 3.421875 -1.71875 C 3.910156 -1.457031 4.460938 -1.328125 5.078125 -1.328125 Z M 5.078125 -1.328125 "/></g></g></g></svg>