<?xml version="1.0" encoding="UTF-8" standalone="no"?><svg xmlns="http://www.w3.org/2000/svg" xmlns:xlink="http://www.w3.org/1999/xlink" fill="#111010" height="54.3" preserveAspectRatio="xMidYMid meet" version="1" viewBox="4.7 4.9 57.5 54.3" width="57.5" zoomAndPan="magnify"><g id="change1_1"><path d="M37,21.46a3.5,3.5,0,0,0,3.5-3.5V14.83a3.5,3.5,0,0,0-3.5-3.5H14a3.5,3.5,0,0,0-3.5,3.5V18a3.5,3.5,0,0,0,3.5,3.5ZM13.46,18V14.83a.5.5,0,0,1,.5-.5H37a.5.5,0,0,1,.5.5V18a.5.5,0,0,1-.5.5H14A.5.5,0,0,1,13.46,18Zm4.63,9h-5a1.5,1.5,0,0,0-1.5,1.5v5a1.5,1.5,0,0,0,1.5,1.5h5a1.5,1.5,0,0,0,1.5-1.5v-5A1.5,1.5,0,0,0,18.08,27Zm-1.5,5h-2V30h2Zm1.5,4.51h-5a1.5,1.5,0,0,0-1.5,1.5v5a1.5,1.5,0,0,0,1.5,1.5h5a1.5,1.5,0,0,0,1.5-1.5V38A1.5,1.5,0,0,0,18.08,36.51Zm-1.5,5h-2v-2h2ZM18.08,46h-5a1.5,1.5,0,0,0-1.5,1.5v5a1.5,1.5,0,0,0,1.5,1.5h5a1.5,1.5,0,0,0,1.5-1.5v-5A1.5,1.5,0,0,0,18.08,46Zm-1.5,5h-2V49h2Zm11.5-24h-5a1.5,1.5,0,0,0-1.5,1.5v5a1.5,1.5,0,0,0,1.5,1.5h5a1.5,1.5,0,0,0,1.5-1.5v-5A1.5,1.5,0,0,0,28.08,27Zm-1.5,5h-2V30h2Zm1.5,4.51h-5a1.5,1.5,0,0,0-1.5,1.5v5a1.5,1.5,0,0,0,1.5,1.5h5a1.5,1.5,0,0,0,1.5-1.5V38A1.5,1.5,0,0,0,28.08,36.51Zm-1.5,5h-2v-2h2ZM28.08,46h-5a1.5,1.5,0,0,0-1.5,1.5v5a1.5,1.5,0,0,0,1.5,1.5h5a1.5,1.5,0,0,0,1.5-1.5v-5A1.5,1.5,0,0,0,28.08,46Zm-1.5,5h-2V49h2Zm11.5-24h-5a1.5,1.5,0,0,0-1.5,1.5v5a1.5,1.5,0,0,0,1.5,1.5h5a1.5,1.5,0,0,0,1.5-1.5v-5A1.5,1.5,0,0,0,38.08,27Zm-1.5,5h-2V30h2ZM49,30.75a12.45,12.45,0,0,0-2.5.25V8.38A3.5,3.5,0,0,0,43,4.88H8.21a3.5,3.5,0,0,0-3.5,3.5V55.63a3.5,3.5,0,0,0,3.5,3.5H43a3.5,3.5,0,0,0,3.5-3.5v-.25A12.44,12.44,0,1,0,49,30.75Zm-5.5,24.88a.5.5,0,0,1-.5.5H8.21a.5.5,0,0,1-.5-.5V8.38a.5.5,0,0,1,.5-.5H43a.5.5,0,0,1,.5.5V32a12.51,12.51,0,0,0-5,4.51,1.49,1.49,0,0,0-.37-.05h-5a1.5,1.5,0,0,0-1.5,1.5v5a1.5,1.5,0,0,0,1.5,1.5h3.51A12.32,12.32,0,0,0,36.86,46H33.08a1.5,1.5,0,0,0-1.5,1.5v5a1.5,1.5,0,0,0,1.5,1.5h5a1.5,1.5,0,0,0,1.5-1.5V51.34a12.5,12.5,0,0,0,3.88,3ZM34.58,41.51v-2h2v2Zm2,7.51v2h-2V49ZM49,52.63a9.44,9.44,0,0,1-9.43-9.24,1.49,1.49,0,0,0,.05-.37v-.87A9.44,9.44,0,1,1,49,52.63Zm-1-12.08c-.08,1.32,1.82,1.24,2.64,1.62a4.41,4.41,0,0,1,.44.24,3.87,3.87,0,0,1,1.77,2.36,4,4,0,0,1-2.31,4.68v.92a1.5,1.5,0,0,1-3,0v-.79A4.09,4.09,0,0,1,44.94,47a1.5,1.5,0,1,1,2.84-1,1,1,0,0,0,1.07.73c.76-.05,1.4-1,.83-1.67a1.29,1.29,0,0,0-.76-.37c-2.22-.43-4.15-1.95-4-4.41a4.09,4.09,0,0,1,2.53-3.51V36a1.5,1.5,0,0,1,3,0v.83a4,4,0,0,1,.84.43A4.08,4.08,0,0,1,53,40.13a1.5,1.5,0,0,1-3,.37,1.07,1.07,0,0,0-.46-.76,1.08,1.08,0,0,0-.88-.15A1.09,1.09,0,0,0,47.92,40.55Z" fill="inherit"/></g></svg>