<?xml version="1.0" encoding="UTF-8" standalone="no"?><svg xmlns="http://www.w3.org/2000/svg" xmlns:xlink="http://www.w3.org/1999/xlink" fill="#000000" height="440" preserveAspectRatio="xMidYMid meet" version="1" viewBox="36.0 36.0 440.0 440.0" width="440" zoomAndPan="magnify"><g fill="#111010" id="change1_1"><path d="M201.7,351.4a77,77,0,1,0-89.4,0C67.9,367.7,36,409.9,36,459.9V465a11,11,0,0,0,11,11H267a11,11,0,0,0,11-11v-5.1C278,409.9,246.1,367.7,201.7,351.4ZM102,289a55,55,0,1,1,55,55A55.1,55.1,0,0,1,102,289ZM58.2,454a94,94,0,0,1,93.7-88h10.2a94,94,0,0,1,93.7,88Z" fill="inherit"/><path d="M465,36H245a11,11,0,0,0-11,11V179a11,11,0,0,0,11,11h55v55a10.9,10.9,0,0,0,11,11,11.2,11.2,0,0,0,7.5-2.9L386.8,190H465a11,11,0,0,0,11-11V47A11,11,0,0,0,465,36ZM454,168H382.5a11,11,0,0,0-7.5,2.9l-53,49V179a11,11,0,0,0-11-11H256V58H454Z" fill="inherit"/></g></svg>