<?xml version="1.0" encoding="UTF-8" standalone="no"?><svg xmlns="http://www.w3.org/2000/svg" xmlns:xlink="http://www.w3.org/1999/xlink" fill="#111010" height="42" preserveAspectRatio="xMidYMid meet" version="1" viewBox="0.0 -0.5 56.0 42.0" width="56" zoomAndPan="magnify"><g id="change1_11"><path d="M0 0L0 0" fill="inherit" stroke="#449fdb"/></g><g id="change1_1"><path d="M11.116 41.532c-3.434 0-6.782-0.21-10.24-0.648-0.502-0.064-0.876-0.49-0.876-0.994v-24.004c0-0.286 0.124-0.56 0.338-0.75s0.498-0.28 0.786-0.242c3.376 0.426 6.65 0.632 10.002 0.632 4.572 0 8.746-0.39 12.782-0.766 4.082-0.384 8.302-0.778 12.97-0.778 3.438 0 6.786 0.212 10.242 0.646 0.506 0.062 0.88 0.488 0.88 0.992v24c0 0.29-0.126 0.56-0.34 0.75-0.214 0.192-0.5 0.282-0.786 0.242-3.378-0.428-6.652-0.63-10.004-0.63-4.574 0-8.75 0.388-12.786 0.77-4.080 0.38-8.3 0.78-12.968 0.78zM2 39.004c3.066 0.356 6.056 0.528 9.114 0.528 4.574 0 8.75-0.39 12.786-0.77 4.084-0.382 8.302-0.778 12.97-0.778 3.064 0 6.060 0.168 9.126 0.512v-21.988c-3.066-0.354-6.056-0.526-9.12-0.526-4.574 0-8.75 0.39-12.786 0.77-4.082 0.38-8.3 0.776-12.966 0.776-3.058 0-6.054-0.168-9.124-0.514v21.99z" fill="inherit"/></g><g id="change1_2"><path d="M51 37.076c-0.55 0-1-0.448-1-1v-23.116c-8.664-0.996-15.39-0.366-21.9 0.244-6.842 0.64-13.916 1.3-23.224 0.128-0.546-0.070-0.934-0.57-0.868-1.118 0.068-0.546 0.562-0.936 1.118-0.868 9.098 1.148 16.056 0.494 22.79-0.134 6.834-0.64 13.902-1.3 23.212-0.13 0.5 0.064 0.876 0.488 0.876 0.992v24.002c-0.004 0.552-0.454 1-1.004 1z" fill="inherit"/></g><g id="change1_3"><path d="M55 33.11c-0.55 0-1-0.448-1-1v-23.116c-8.664-0.996-15.39-0.366-21.902 0.242-6.838 0.64-13.914 1.302-23.222 0.128-0.548-0.068-0.938-0.57-0.87-1.118 0.070-0.546 0.56-0.934 1.118-0.868 9.096 1.146 16.054 0.496 22.786-0.134 6.84-0.642 13.906-1.302 23.214-0.132 0.502 0.062 0.876 0.488 0.876 0.992v24c0 0.558-0.45 1.006-1 1.006z" fill="inherit"/></g><g id="change1_4"><path d="M11.116 37.532c-2.078 0-4.104-0.082-6.194-0.25-0.55-0.042-0.96-0.528-0.916-1.078 0.044-0.546 0.52-0.958 1.078-0.914 2.038 0.164 4.012 0.242 6.034 0.242 0.552 0 1 0.452 1 1-0.002 0.55-0.452 1-1.002 1z" fill="inherit"/></g><g id="change1_5"><path d="M43 20.228c-0.028 0-0.050 0-0.082-0.002-2.024-0.164-3.996-0.244-6.040-0.244-0.55 0-1-0.448-1-1s0.45-1 1-1c2.094 0 4.122 0.082 6.2 0.248 0.55 0.046 0.96 0.528 0.918 1.078-0.038 0.522-0.48 0.92-0.996 0.92z" fill="inherit"/></g><g id="change1_6"><path d="M23.084 32.176c-1.934 0-3.286-1.198-3.286-2.906 0-0.55 0.448-1 1-1s1 0.45 1 1c0 0.79 0.806 0.906 1.286 0.906s1.286-0.122 1.286-0.906c0-0.464 0-0.538-1.366-1.208l-0.726-0.362c-1.33-0.658-2.478-1.22-2.478-3 0-1.72 1.352-2.922 3.286-2.922 1.916 0 3.254 1.202 3.254 2.922 0 0.552-0.448 1-1 1s-1-0.448-1-1c0-0.76-0.682-0.922-1.254-0.922-0.48 0-1.286 0.12-1.286 0.922 0 0.464 0 0.534 1.364 1.206l0.728 0.364c1.332 0.656 2.482 1.22 2.482 3-0.002 1.708-1.356 2.906-3.29 2.906z" fill="inherit"/></g><g id="change1_7"><path d="M23 21.982c-0.26 0-0.52-0.098-0.7-0.3-0.2-0.178-0.3-0.438-0.3-0.7 0-0.26 0.1-0.52 0.3-0.7 0.36-0.38 1.020-0.38 1.4 0 0.2 0.18 0.3 0.44 0.3 0.7s-0.1 0.522-0.3 0.7c-0.18 0.202-0.44 0.3-0.7 0.3z" fill="inherit"/></g><g id="change1_8"><path d="M22 20.982h2v2h-2v-2z" fill="inherit"/></g><g id="change1_9"><path d="M23 33.982c-0.26 0-0.52-0.1-0.7-0.298-0.2-0.18-0.3-0.44-0.3-0.702 0-0.26 0.1-0.522 0.3-0.702 0.36-0.378 1.040-0.378 1.4 0 0.2 0.18 0.3 0.442 0.3 0.702s-0.1 0.522-0.3 0.702c-0.18 0.198-0.44 0.298-0.7 0.298z" fill="inherit"/></g><g id="change1_10"><path d="M22 30.982h2v2h-2v-2z" fill="inherit"/></g></svg>